<svg xmlns="http://www.w3.org/2000/svg" width="1200" height="720" viewBox="0 0 1200 720">
    <defs>
      <marker id="arrow" markerWidth="12" markerHeight="12" refX="10" refY="6" orient="auto" markerUnits="strokeWidth">
        <path d="M2,2 L10,6 L2,10 Z" fill="#334155"/>
      </marker>
      <filter id="shadow" x="-10%" y="-10%" width="120%" height="120%">
        <feDropShadow dx="0" dy="4" stdDeviation="5" flood-color="#0f172a" flood-opacity="0.15"/>
      </filter>
    </defs>
    <rect width="1200" height="720" fill="#ffffff"/>
    <rect x="28" y="24" width="1144" height="672" rx="24" fill="#f8fafc" stroke="#e2e8f0" stroke-width="2"/>
    <text x="600" y="76" text-anchor="middle" font-family="Arial, Helvetica, sans-serif" font-size="34" font-weight="800" fill="#0f172a"><tspan x="600" dy="0">Data Flow Model</tspan></text>
    
      <rect x="70" y="145" width="180" height="72" rx="18" fill="#f0fdfa" stroke="#0d9488" stroke-width="3"/><text x="160" y="189.16" text-anchor="middle" font-family="Arial, Helvetica, sans-serif" font-size="24" font-weight="700" fill="#0f172a"><tspan x="160" dy="0">Admin</tspan></text>
      <rect x="70" y="325" width="180" height="72" rx="18" fill="#eff6ff" stroke="#2563eb" stroke-width="3"/><text x="160" y="369.16" text-anchor="middle" font-family="Arial, Helvetica, sans-serif" font-size="24" font-weight="700" fill="#0f172a"><tspan x="160" dy="0">Resident</tspan></text>
      <rect x="70" y="505" width="180" height="72" rx="18" fill="#fff7ed" stroke="#ea580c" stroke-width="3"/><text x="160" y="549.16" text-anchor="middle" font-family="Arial, Helvetica, sans-serif" font-size="24" font-weight="700" fill="#0f172a"><tspan x="160" dy="0">Security</tspan></text>
      <rect x="430" y="245" width="330" height="190" rx="18" fill="#ffffff" stroke="#0f766e" stroke-width="3"/><text x="595" y="333.5" text-anchor="middle" font-family="Arial, Helvetica, sans-serif" font-size="26" font-weight="700" fill="#0f172a"><tspan x="595" dy="0">eRoyal Mobile Web</tspan><tspan x="595" dy="30.68">Application</tspan></text>
      <rect x="925" y="125" width="205" height="72" rx="18" fill="#ecfeff" stroke="#0891b2" stroke-width="3"/><text x="1027.5" y="169.16" text-anchor="middle" font-family="Arial, Helvetica, sans-serif" font-size="24" font-weight="700" fill="#0f172a"><tspan x="1027.5" dy="0">Auth Store</tspan></text>
      <rect x="925" y="265" width="205" height="72" rx="18" fill="#eef2ff" stroke="#4f46e5" stroke-width="3"/><text x="1027.5" y="309.16" text-anchor="middle" font-family="Arial, Helvetica, sans-serif" font-size="24" font-weight="700" fill="#0f172a"><tspan x="1027.5" dy="0">Firestore Data</tspan></text>
      <rect x="925" y="405" width="205" height="72" rx="18" fill="#fff7ed" stroke="#ea580c" stroke-width="3"/><text x="1027.5" y="449.16" text-anchor="middle" font-family="Arial, Helvetica, sans-serif" font-size="24" font-weight="700" fill="#0f172a"><tspan x="1027.5" dy="0">Storage Files</tspan></text>
      <rect x="925" y="545" width="205" height="72" rx="18" fill="#fdf4ff" stroke="#c026d3" stroke-width="3"/><text x="1027.5" y="589.16" text-anchor="middle" font-family="Arial, Helvetica, sans-serif" font-size="24" font-weight="700" fill="#0f172a"><tspan x="1027.5" dy="0">AI Service</tspan></text>
      
    <line x1="250" y1="181" x2="430" y2="290" stroke="#334155" stroke-width="4" marker-end="url(#arrow)"/>
    <text x="340" y="225.5" text-anchor="middle" font-family="Arial, Helvetica, sans-serif" font-size="16" font-weight="600" fill="#334155"><tspan x="340" dy="0">admin commands</tspan></text>
  
      
    <line x1="250" y1="361" x2="430" y2="340" stroke="#334155" stroke-width="4" marker-end="url(#arrow)"/>
    <text x="340" y="340.5" text-anchor="middle" font-family="Arial, Helvetica, sans-serif" font-size="16" font-weight="600" fill="#334155"><tspan x="340" dy="0">requests</tspan></text>
  
      
    <line x1="250" y1="541" x2="430" y2="390" stroke="#334155" stroke-width="4" marker-end="url(#arrow)"/>
    <text x="340" y="455.5" text-anchor="middle" font-family="Arial, Helvetica, sans-serif" font-size="16" font-weight="600" fill="#334155"><tspan x="340" dy="0">gate logs</tspan></text>
  
      
    <line x1="760" y1="290" x2="925" y2="161" stroke="#334155" stroke-width="4" marker-end="url(#arrow)"/>
    <text x="842.5" y="215.5" text-anchor="middle" font-family="Arial, Helvetica, sans-serif" font-size="16" font-weight="600" fill="#334155"><tspan x="842.5" dy="0">credentials</tspan></text>
  
      
    <line x1="760" y1="322" x2="925" y2="301" stroke="#334155" stroke-width="4" marker-end="url(#arrow)"/>
    <text x="842.5" y="301.5" text-anchor="middle" font-family="Arial, Helvetica, sans-serif" font-size="16" font-weight="600" fill="#334155"><tspan x="842.5" dy="0">records</tspan></text>
  
      
    <line x1="760" y1="354" x2="925" y2="441" stroke="#334155" stroke-width="4" marker-end="url(#arrow)"/>
    <text x="842.5" y="387.5" text-anchor="middle" font-family="Arial, Helvetica, sans-serif" font-size="16" font-weight="600" fill="#334155"><tspan x="842.5" dy="0">images</tspan></text>
  
      
    <line x1="760" y1="386" x2="925" y2="581" stroke="#334155" stroke-width="4" marker-end="url(#arrow)"/>
    <text x="842.5" y="473.5" text-anchor="middle" font-family="Arial, Helvetica, sans-serif" font-size="16" font-weight="600" fill="#334155"><tspan x="842.5" dy="0">chat OCR</tspan></text>
  
    
  </svg>