<svg xmlns="http://www.w3.org/2000/svg" width="1200" height="720" viewBox="0 0 1200 720">
    <defs>
      <marker id="arrow" markerWidth="12" markerHeight="12" refX="10" refY="6" orient="auto" markerUnits="strokeWidth">
        <path d="M2,2 L10,6 L2,10 Z" fill="#334155"/>
      </marker>
      <filter id="shadow" x="-10%" y="-10%" width="120%" height="120%">
        <feDropShadow dx="0" dy="4" stdDeviation="5" flood-color="#0f172a" flood-opacity="0.15"/>
      </filter>
    </defs>
    <rect width="1200" height="720" fill="#ffffff"/>
    <rect x="28" y="24" width="1144" height="672" rx="24" fill="#f8fafc" stroke="#e2e8f0" stroke-width="2"/>
    <text x="600" y="76" text-anchor="middle" font-family="Arial, Helvetica, sans-serif" font-size="34" font-weight="800" fill="#0f172a"><tspan x="600" dy="0">Project Scheduling</tspan></text>
    
      <rect x="80" y="150" width="180" height="70" rx="18" fill="#ecfeff" stroke="#0891b2" stroke-width="3"/><text x="170" y="179.75" text-anchor="middle" font-family="Arial, Helvetica, sans-serif" font-size="21" font-weight="700" fill="#0f172a"><tspan x="170" dy="0">Requirement</tspan><tspan x="170" dy="24.779999999999998">Study</tspan></text>
      <rect x="310" y="150" width="170" height="70" rx="18" fill="#f0fdf4" stroke="#16a34a" stroke-width="3"/><text x="395" y="179.75" text-anchor="middle" font-family="Arial, Helvetica, sans-serif" font-size="21" font-weight="700" fill="#0f172a"><tspan x="395" dy="0">SRS and</tspan><tspan x="395" dy="24.779999999999998">Planning</tspan></text>
      <rect x="530" y="150" width="170" height="70" rx="18" fill="#fff7ed" stroke="#ea580c" stroke-width="3"/><text x="615" y="192.14" text-anchor="middle" font-family="Arial, Helvetica, sans-serif" font-size="21" font-weight="700" fill="#0f172a"><tspan x="615" dy="0">UI Design</tspan></text>
      <rect x="750" y="150" width="170" height="70" rx="18" fill="#eff6ff" stroke="#2563eb" stroke-width="3"/><text x="835" y="192.14" text-anchor="middle" font-family="Arial, Helvetica, sans-serif" font-size="21" font-weight="700" fill="#0f172a"><tspan x="835" dy="0">Implementation</tspan></text>
      <rect x="970" y="150" width="150" height="70" rx="18" fill="#fef2f2" stroke="#dc2626" stroke-width="3"/><text x="1045" y="192.14" text-anchor="middle" font-family="Arial, Helvetica, sans-serif" font-size="21" font-weight="700" fill="#0f172a"><tspan x="1045" dy="0">Testing</tspan></text>
      
    <line x1="260" y1="185" x2="310" y2="185" stroke="#334155" stroke-width="4" marker-end="url(#arrow)"/>
    
  
      
    <line x1="480" y1="185" x2="530" y2="185" stroke="#334155" stroke-width="4" marker-end="url(#arrow)"/>
    
  
      
    <line x1="700" y1="185" x2="750" y2="185" stroke="#334155" stroke-width="4" marker-end="url(#arrow)"/>
    
  
      
    <line x1="920" y1="185" x2="970" y2="185" stroke="#334155" stroke-width="4" marker-end="url(#arrow)"/>
    
  
      <rect x="180" y="315" width="220" height="62" rx="18" fill="#eef2ff" stroke="#4f46e5" stroke-width="3"/><text x="290" y="352.8" text-anchor="middle" font-family="Arial, Helvetica, sans-serif" font-size="20" font-weight="700" fill="#0f172a"><tspan x="290" dy="0">Firebase Setup</tspan></text>
      <rect x="440" y="315" width="250" height="62" rx="18" fill="#f0fdfa" stroke="#0d9488" stroke-width="3"/><text x="565" y="352.8" text-anchor="middle" font-family="Arial, Helvetica, sans-serif" font-size="20" font-weight="700" fill="#0f172a"><tspan x="565" dy="0">Role Based Modules</tspan></text>
      <rect x="730" y="315" width="260" height="62" rx="18" fill="#fdf4ff" stroke="#c026d3" stroke-width="3"/><text x="860" y="341" text-anchor="middle" font-family="Arial, Helvetica, sans-serif" font-size="20" font-weight="700" fill="#0f172a"><tspan x="860" dy="0">Documentation and</tspan><tspan x="860" dy="23.599999999999998">Review</tspan></text>
      
    <line x1="400" y1="346" x2="440" y2="346" stroke="#334155" stroke-width="4" marker-end="url(#arrow)"/>
    
  
      
    <line x1="690" y1="346" x2="730" y2="346" stroke="#334155" stroke-width="4" marker-end="url(#arrow)"/>
    
  
      <rect x="130" y="500" width="930" height="78" rx="18" fill="#ffffff" stroke="#94a3b8" stroke-width="3"/><text x="595" y="533.5" text-anchor="middle" font-family="Arial, Helvetica, sans-serif" font-size="22" font-weight="600" fill="#0f172a"><tspan x="595" dy="0">Iterative improvements were made after testing billing, complaints,</tspan><tspan x="595" dy="25.959999999999997">marketplace, vehicle logs, storage rules, and role based navigation.</tspan></text>
    
  </svg>