<svg xmlns="http://www.w3.org/2000/svg" width="1200" height="720" viewBox="0 0 1200 720">
    <defs>
      <marker id="arrow" markerWidth="12" markerHeight="12" refX="10" refY="6" orient="auto" markerUnits="strokeWidth">
        <path d="M2,2 L10,6 L2,10 Z" fill="#334155"/>
      </marker>
      <filter id="shadow" x="-10%" y="-10%" width="120%" height="120%">
        <feDropShadow dx="0" dy="4" stdDeviation="5" flood-color="#0f172a" flood-opacity="0.15"/>
      </filter>
    </defs>
    <rect width="1200" height="720" fill="#ffffff"/>
    <rect x="28" y="24" width="1144" height="672" rx="24" fill="#f8fafc" stroke="#e2e8f0" stroke-width="2"/>
    <text x="600" y="76" text-anchor="middle" font-family="Arial, Helvetica, sans-serif" font-size="34" font-weight="800" fill="#0f172a"><tspan x="600" dy="0">Use Case Diagram</tspan></text>
    
      
    <circle cx="125" cy="140" r="24" fill="#0d9488"/>
    <line x1="125" y1="164" x2="125" y2="226" stroke="#0f766e" stroke-width="8" stroke-linecap="round"/>
    <line x1="83" y1="188" x2="167" y2="188" stroke="#0f766e" stroke-width="8" stroke-linecap="round"/>
    <line x1="125" y1="226" x2="87" y2="282" stroke="#0f766e" stroke-width="8" stroke-linecap="round"/>
    <line x1="125" y1="226" x2="163" y2="282" stroke="#0f766e" stroke-width="8" stroke-linecap="round"/>
    <text x="125" y="325" text-anchor="middle" font-family="Arial, Helvetica, sans-serif" font-size="22" font-weight="700" fill="#0f172a"><tspan x="125" dy="0">Admin</tspan></text>
  
      
    <circle cx="125" cy="385" r="24" fill="#0d9488"/>
    <line x1="125" y1="409" x2="125" y2="471" stroke="#0f766e" stroke-width="8" stroke-linecap="round"/>
    <line x1="83" y1="433" x2="167" y2="433" stroke="#0f766e" stroke-width="8" stroke-linecap="round"/>
    <line x1="125" y1="471" x2="87" y2="527" stroke="#0f766e" stroke-width="8" stroke-linecap="round"/>
    <line x1="125" y1="471" x2="163" y2="527" stroke="#0f766e" stroke-width="8" stroke-linecap="round"/>
    <text x="125" y="570" text-anchor="middle" font-family="Arial, Helvetica, sans-serif" font-size="22" font-weight="700" fill="#0f172a"><tspan x="125" dy="0">Resident</tspan></text>
  
      
    <circle cx="1080" cy="265" r="24" fill="#0d9488"/>
    <line x1="1080" y1="289" x2="1080" y2="351" stroke="#0f766e" stroke-width="8" stroke-linecap="round"/>
    <line x1="1038" y1="313" x2="1122" y2="313" stroke="#0f766e" stroke-width="8" stroke-linecap="round"/>
    <line x1="1080" y1="351" x2="1042" y2="407" stroke="#0f766e" stroke-width="8" stroke-linecap="round"/>
    <line x1="1080" y1="351" x2="1118" y2="407" stroke="#0f766e" stroke-width="8" stroke-linecap="round"/>
    <text x="1080" y="450" text-anchor="middle" font-family="Arial, Helvetica, sans-serif" font-size="22" font-weight="700" fill="#0f172a"><tspan x="1080" dy="0">Security</tspan></text>
  
      <rect x="310" y="120" width="575" height="460" rx="28" fill="#ffffff" stroke="#0d9488" stroke-width="4"/>
      <text x="598" y="165" text-anchor="middle" font-family="Arial, Helvetica, sans-serif" font-size="28" font-weight="800" fill="#0f766e"><tspan x="598" dy="0">eRoyal App</tspan></text>
      <rect x="360" y="205" width="205" height="58" rx="18" fill="#f0fdfa" stroke="#0d9488" stroke-width="3"/><text x="462.5" y="240.8" text-anchor="middle" font-family="Arial, Helvetica, sans-serif" font-size="20" font-weight="700" fill="#0f172a"><tspan x="462.5" dy="0">Manage Users</tspan></text>
      <rect x="615" y="205" width="205" height="58" rx="18" fill="#eff6ff" stroke="#2563eb" stroke-width="3"/><text x="717.5" y="240.8" text-anchor="middle" font-family="Arial, Helvetica, sans-serif" font-size="20" font-weight="700" fill="#0f172a"><tspan x="717.5" dy="0">Generate Bills</tspan></text>
      <rect x="360" y="295" width="205" height="58" rx="18" fill="#fff7ed" stroke="#ea580c" stroke-width="3"/><text x="462.5" y="319" text-anchor="middle" font-family="Arial, Helvetica, sans-serif" font-size="20" font-weight="700" fill="#0f172a"><tspan x="462.5" dy="0">Resolve</tspan><tspan x="462.5" dy="23.599999999999998">Complaints</tspan></text>
      <rect x="615" y="295" width="205" height="58" rx="18" fill="#fdf4ff" stroke="#c026d3" stroke-width="3"/><text x="717.5" y="330.8" text-anchor="middle" font-family="Arial, Helvetica, sans-serif" font-size="20" font-weight="700" fill="#0f172a"><tspan x="717.5" dy="0">Approve Listings</tspan></text>
      <rect x="360" y="390" width="205" height="58" rx="18" fill="#ecfeff" stroke="#0891b2" stroke-width="3"/><text x="462.5" y="414" text-anchor="middle" font-family="Arial, Helvetica, sans-serif" font-size="20" font-weight="700" fill="#0f172a"><tspan x="462.5" dy="0">View</tspan><tspan x="462.5" dy="23.599999999999998">Announcements</tspan></text>
      <rect x="615" y="390" width="205" height="58" rx="18" fill="#f0fdf4" stroke="#16a34a" stroke-width="3"/><text x="717.5" y="425.8" text-anchor="middle" font-family="Arial, Helvetica, sans-serif" font-size="20" font-weight="700" fill="#0f172a"><tspan x="717.5" dy="0">Pay Bills</tspan></text>
      <rect x="360" y="485" width="205" height="58" rx="18" fill="#fef2f2" stroke="#dc2626" stroke-width="3"/><text x="462.5" y="520.8" text-anchor="middle" font-family="Arial, Helvetica, sans-serif" font-size="20" font-weight="700" fill="#0f172a"><tspan x="462.5" dy="0">Post Complaint</tspan></text>
      <rect x="615" y="485" width="205" height="58" rx="18" fill="#fff7ed" stroke="#ea580c" stroke-width="3"/><text x="717.5" y="509.25000000000006" text-anchor="middle" font-family="Arial, Helvetica, sans-serif" font-size="19" font-weight="700" fill="#0f172a"><tspan x="717.5" dy="0">Log Vehicle Entry</tspan><tspan x="717.5" dy="22.419999999999998">Exit</tspan></text>
      
    <line x1="190" y1="210" x2="360" y2="232" stroke="#334155" stroke-width="4" marker-end="url(#arrow)"/>
    
  
      
    <line x1="190" y1="210" x2="615" y2="232" stroke="#334155" stroke-width="4" marker-end="url(#arrow)"/>
    
  
      
    <line x1="190" y1="210" x2="360" y2="323" stroke="#334155" stroke-width="4" marker-end="url(#arrow)"/>
    
  
      
    <line x1="190" y1="210" x2="615" y2="323" stroke="#334155" stroke-width="4" marker-end="url(#arrow)"/>
    
  
      
    <line x1="190" y1="455" x2="360" y2="418" stroke="#334155" stroke-width="4" marker-end="url(#arrow)"/>
    
  
      
    <line x1="190" y1="455" x2="615" y2="418" stroke="#334155" stroke-width="4" marker-end="url(#arrow)"/>
    
  
      
    <line x1="190" y1="455" x2="360" y2="512" stroke="#334155" stroke-width="4" marker-end="url(#arrow)"/>
    
  
      
    <line x1="1018" y1="335" x2="820" y2="512" stroke="#334155" stroke-width="4" marker-end="url(#arrow)"/>
    
  
    
  </svg>